<?xml version="1.0" encoding="utf-8"?>
<!-- Generator: Adobe Illustrator 19.0.0, SVG Export Plug-In . SVG Version: 6.00 Build 0)  -->
<svg version="1.1" id="图层_1" xmlns="http://www.w3.org/2000/svg" xmlns:xlink="http://www.w3.org/1999/xlink" x="0px" y="0px"
	 viewBox="0 0 36 20" style="enable-background:new 0 0 36 20;" xml:space="preserve">
<style type="text/css">
	.st0{fill:#CC2929;}
	.st1{fill:#F7F7F7;}
	.st2{fill:#3653F5;}
</style>
<g>
	<g>
		<path id="XMLID_50_" class="st0" d="M24.3,3.7c-0.9-0.4-1.5-0.6-2.6-0.6c0.4-1,0.5-1.5,0.9-2.5c1.2,0,1.8,0.2,2.8,0.7
			C24.9,2.3,24.7,2.8,24.3,3.7z"/>
		<path id="XMLID_49_" class="st1" d="M26.3,5.2c-0.7-0.7-1.1-1-2.1-1.5c0.4-1,0.6-1.4,1-2.4c1,0.5,1.4,0.9,2.1,1.7
			C27,3.9,26.8,4.4,26.3,5.2z"/>
		<path id="XMLID_48_" class="st1" d="M23.2,6.1c-0.9-0.4-1.4-0.5-2.5-0.5c0.4-1,0.5-1.5,0.9-2.5c1.2,0,1.7,0.1,2.6,0.6
			C23.8,4.7,23.6,5.2,23.2,6.1z"/>
		<path id="XMLID_47_" class="st0" d="M25.2,7.4c-0.7-0.6-1.1-0.9-2-1.3c0.4-1,0.6-1.4,1.1-2.4c0.9,0.4,1.4,0.8,2.1,1.5
			C25.9,6.1,25.7,6.5,25.2,7.4z"/>
		<path id="XMLID_46_" class="st0" d="M28,6.8c-0.7-0.6-1-0.9-1.7-1.6c0.4-0.9,0.6-1.3,1-2.2c0.7,0.8,1,1.1,1.7,1.8
			C28.6,5.6,28.4,6,28,6.8z"/>
		<path id="XMLID_45_" class="st1" d="M29.8,8.3C29,7.7,28.7,7.4,28,6.8c0.4-0.8,0.6-1.2,1-2c0.7,0.7,1,1,1.8,1.6
			C30.4,7.2,30.2,7.6,29.8,8.3z"/>
		<path id="XMLID_44_" class="st1" d="M26.9,8.9c-0.7-0.6-1-0.9-1.7-1.5c0.4-0.9,0.7-1.3,1.1-2.2c0.7,0.7,1,1,1.7,1.6
			C27.6,7.7,27.4,8.1,26.9,8.9z"/>
		<path id="XMLID_43_" class="st0" d="M28.7,10.2c-0.8-0.5-1.1-0.8-1.8-1.4c0.4-0.8,0.6-1.2,1.1-2c0.7,0.6,1,0.9,1.8,1.5
			C29.4,9.1,29.2,9.5,28.7,10.2z"/>
		<path id="XMLID_42_" class="st0" d="M32.2,9.5c-1.1-0.3-1.6-0.6-2.4-1.2c0.4-0.8,0.6-1.1,1.1-1.9c0.8,0.7,1.4,1,2.5,1.4
			C33,8.5,32.7,8.8,32.2,9.5z"/>
		<path id="XMLID_41_" class="st1" d="M34.7,9.6c-0.9,0.3-1.4,0.2-2.5-0.1c0.5-0.7,0.7-1.1,1.2-1.7c1.1,0.3,1.8,0.4,2.6,0
			C35.5,8.5,35.3,8.8,34.7,9.6z"/>
		<path id="XMLID_40_" class="st1" d="M31,11.3c-1-0.3-1.5-0.6-2.2-1.1c0.4-0.8,0.6-1.1,1.1-1.9c0.8,0.6,1.4,0.9,2.4,1.2
			C31.7,10.2,31.5,10.6,31,11.3z"/>
		<path id="XMLID_39_" class="st0" d="M33.4,11.5c-0.9,0.2-1.4,0.1-2.4-0.2c0.5-0.7,0.8-1.1,1.2-1.8c1.1,0.3,1.6,0.4,2.5,0.1
			C34.2,10.3,33.9,10.7,33.4,11.5z"/>
		<path id="XMLID_38_" class="st0" d="M22.2,8.5c-0.8-0.3-1.3-0.4-2.3-0.4c0.4-1,0.5-1.5,0.9-2.5c1.1,0,1.6,0.1,2.5,0.5
			C22.8,7.1,22.6,7.6,22.2,8.5z"/>
		<path id="XMLID_37_" class="st1" d="M24.1,9.6c-0.7-0.5-1.1-0.7-1.9-1.1c0.4-1,0.6-1.4,1.1-2.4c0.9,0.4,1.3,0.7,2,1.3
			C24.8,8.3,24.5,8.7,24.1,9.6z"/>
		<path id="XMLID_36_" class="st1" d="M21.1,10.9c-0.8-0.2-1.2-0.3-2.2-0.3c0.4-1,0.5-1.5,0.9-2.5c1,0,1.5,0.1,2.3,0.4
			C21.7,9.5,21.5,10,21.1,10.9z"/>
		<path id="XMLID_35_" class="st0" d="M23.1,11.8c-0.7-0.4-1.1-0.6-1.9-0.9c0.4-1,0.6-1.4,1-2.4c0.8,0.3,1.2,0.5,1.9,1.1
			C23.7,10.5,23.5,10.9,23.1,11.8z"/>
		<path id="XMLID_34_" class="st0" d="M25.9,10.9c-0.7-0.5-1-0.8-1.8-1.3c0.4-0.9,0.7-1.3,1.1-2.2c0.7,0.6,1,0.9,1.7,1.5
			C26.5,9.7,26.3,10.1,25.9,10.9z"/>
		<path id="XMLID_33_" class="st1" d="M27.7,12.1c-0.8-0.5-1.1-0.7-1.8-1.3c0.4-0.8,0.6-1.2,1.1-2c0.7,0.6,1,0.8,1.8,1.4
			C28.3,11,28.1,11.4,27.7,12.1z"/>
		<path id="XMLID_32_" class="st1" d="M24.8,12.9c-0.7-0.5-1.1-0.7-1.8-1.1c0.4-0.9,0.6-1.3,1-2.2c0.7,0.5,1.1,0.8,1.8,1.3
			C25.5,11.7,25.2,12.1,24.8,12.9z"/>
		<path id="XMLID_31_" class="st0" d="M26.6,14c-0.7-0.4-1.1-0.7-1.8-1.1c0.4-0.8,0.6-1.2,1-2c0.7,0.5,1.1,0.8,1.8,1.3
			C27.3,12.9,27,13.3,26.6,14z"/>
		<path id="XMLID_30_" class="st0" d="M29.7,13.2c-0.9-0.3-1.3-0.5-2-1c0.4-0.8,0.6-1.1,1.1-1.9c0.8,0.5,1.3,0.8,2.2,1.1
			C30.5,12.1,30.2,12.4,29.7,13.2z"/>
		<path id="XMLID_29_" class="st1" d="M32,13.4c-0.9,0.1-1.4,0-2.3-0.3c0.5-0.7,0.7-1.1,1.2-1.8c1,0.3,1.5,0.4,2.4,0.2
			C32.8,12.3,32.5,12.7,32,13.4z"/>
		<path id="XMLID_28_" class="st1" d="M28.5,14.9c-0.8-0.2-1.2-0.4-1.9-0.9c0.4-0.8,0.6-1.1,1.1-1.9c0.7,0.5,1.2,0.7,2,1
			C29.2,13.9,29,14.2,28.5,14.9z"/>
		<path id="XMLID_27_" class="st0" d="M30.7,15.2c-1,0-1.4-0.1-2.2-0.3c0.5-0.7,0.7-1,1.2-1.7c0.9,0.3,1.4,0.4,2.3,0.3
			C31.5,14.2,31.2,14.5,30.7,15.2z"/>
	</g>
	<path id="XMLID_26_" class="st0" d="M22.3,0.3c-0.1-0.1-0.3,0-0.4,0.2l-6.8,19l0.5,0.2l6.8-19C22.6,0.5,22.5,0.4,22.3,0.3z"/>
	<g>
		<path id="XMLID_25_" class="st2" d="M11.7,3.7c0.9-0.4,1.5-0.6,2.6-0.6c-0.4-1-0.5-1.5-0.9-2.5c-1.2,0-1.8,0.2-2.8,0.7
			C11.1,2.3,11.3,2.8,11.7,3.7z"/>
		<path id="XMLID_24_" class="st1" d="M9.7,5.2c0.7-0.7,1.1-1,2.1-1.5c-0.4-1-0.6-1.4-1-2.4C9.7,1.8,9.3,2.2,8.6,3
			C9,3.9,9.2,4.4,9.7,5.2z"/>
		<path id="XMLID_23_" class="st1" d="M12.8,6.1c0.9-0.4,1.4-0.5,2.5-0.5c-0.4-1-0.5-1.5-0.9-2.5c-1.2,0-1.7,0.1-2.6,0.6
			C12.2,4.7,12.4,5.2,12.8,6.1z"/>
		<path id="XMLID_22_" class="st2" d="M10.8,7.4c0.7-0.6,1.1-0.9,2-1.3c-0.4-1-0.6-1.4-1.1-2.4c-0.9,0.4-1.4,0.8-2.1,1.5
			C10.1,6.1,10.3,6.5,10.8,7.4z"/>
		<path id="XMLID_21_" class="st2" d="M8,6.8c0.7-0.6,1-0.9,1.7-1.6C9.2,4.4,9,3.9,8.6,3C8,3.8,7.6,4.1,6.9,4.8C7.4,5.6,7.6,6,8,6.8
			z"/>
		<path id="XMLID_20_" class="st1" d="M6.2,8.3C7,7.7,7.3,7.4,8,6.8c-0.4-0.8-0.6-1.2-1-2c-0.7,0.7-1,1-1.8,1.6
			C5.6,7.2,5.8,7.6,6.2,8.3z"/>
		<path id="XMLID_19_" class="st1" d="M9.1,8.9c0.7-0.6,1-0.9,1.7-1.5c-0.4-0.9-0.7-1.3-1.1-2.2C9,5.9,8.7,6.2,8,6.8
			C8.4,7.7,8.6,8.1,9.1,8.9z"/>
		<path id="XMLID_18_" class="st2" d="M7.3,10.2C8,9.7,8.4,9.4,9.1,8.9C8.6,8.1,8.4,7.7,8,6.8C7.3,7.4,7,7.7,6.2,8.3
			C6.6,9.1,6.8,9.5,7.3,10.2z"/>
		<path id="XMLID_17_" class="st2" d="M3.8,9.5c1.1-0.3,1.6-0.6,2.4-1.2C5.8,7.6,5.6,7.2,5.1,6.4c-0.8,0.7-1.4,1-2.5,1.4
			C3,8.5,3.3,8.8,3.8,9.5z"/>
		<path id="XMLID_16_" class="st1" d="M1.3,9.6c0.9,0.3,1.4,0.2,2.5-0.1C3.3,8.8,3,8.5,2.6,7.8C1.4,8.1,0.8,8.2,0,7.8
			C0.5,8.5,0.7,8.8,1.3,9.6z"/>
		<path id="XMLID_15_" class="st1" d="M5,11.3c1-0.3,1.5-0.6,2.2-1.1C6.8,9.5,6.6,9.1,6.2,8.3C5.4,8.9,4.8,9.2,3.8,9.5
			C4.3,10.2,4.5,10.6,5,11.3z"/>
		<path id="XMLID_14_" class="st2" d="M2.6,11.5C3.5,11.7,4,11.6,5,11.3c-0.5-0.7-0.8-1.1-1.2-1.8C2.7,9.8,2.1,9.9,1.3,9.6
			C1.8,10.3,2.1,10.7,2.6,11.5z"/>
		<path id="XMLID_13_" class="st2" d="M13.8,8.5c0.8-0.3,1.3-0.4,2.3-0.4c-0.4-1-0.5-1.5-0.9-2.5c-1.1,0-1.6,0.1-2.5,0.5
			C13.2,7.1,13.4,7.6,13.8,8.5z"/>
		<path id="XMLID_12_" class="st1" d="M11.9,9.6c0.7-0.5,1.1-0.7,1.9-1.1c-0.4-1-0.6-1.4-1.1-2.4c-0.9,0.4-1.3,0.7-2,1.3
			C11.2,8.3,11.5,8.7,11.9,9.6z"/>
		<path id="XMLID_11_" class="st1" d="M14.9,10.9c0.8-0.2,1.2-0.3,2.2-0.3c-0.4-1-0.5-1.5-0.9-2.5c-1,0-1.5,0.1-2.3,0.4
			C14.3,9.5,14.5,10,14.9,10.9z"/>
		<path id="XMLID_10_" class="st2" d="M12.9,11.8c0.7-0.4,1.1-0.6,1.9-0.9c-0.4-1-0.6-1.4-1-2.4c-0.8,0.3-1.2,0.5-1.9,1.1
			C12.3,10.5,12.5,10.9,12.9,11.8z"/>
		<path id="XMLID_9_" class="st2" d="M10.1,10.9c0.7-0.5,1-0.8,1.8-1.3c-0.4-0.9-0.7-1.3-1.1-2.2c-0.7,0.6-1,0.9-1.7,1.5
			C9.5,9.7,9.7,10.1,10.1,10.9z"/>
		<path id="XMLID_8_" class="st1" d="M8.3,12.1c0.8-0.5,1.1-0.7,1.8-1.3c-0.4-0.8-0.6-1.2-1.1-2c-0.7,0.6-1,0.8-1.8,1.4
			C7.7,11,7.9,11.4,8.3,12.1z"/>
		<path id="XMLID_7_" class="st1" d="M11.2,12.9c0.7-0.5,1.1-0.7,1.8-1.1c-0.4-0.9-0.6-1.3-1-2.2c-0.7,0.5-1.1,0.8-1.8,1.3
			C10.5,11.7,10.8,12.1,11.2,12.9z"/>
		<path id="XMLID_6_" class="st2" d="M9.4,14c0.7-0.4,1.1-0.7,1.8-1.1c-0.4-0.8-0.6-1.2-1-2c-0.7,0.5-1.1,0.8-1.8,1.3
			C8.7,12.9,9,13.3,9.4,14z"/>
		<path id="XMLID_5_" class="st2" d="M6.3,13.2c0.9-0.3,1.3-0.5,2-1c-0.4-0.8-0.6-1.1-1.1-1.9C6.5,10.8,6,11,5,11.3
			C5.5,12.1,5.8,12.4,6.3,13.2z"/>
		<path id="XMLID_4_" class="st1" d="M4,13.4c0.9,0.1,1.4,0,2.3-0.3c-0.5-0.7-0.7-1.1-1.2-1.8c-1,0.3-1.5,0.4-2.4,0.2
			C3.2,12.3,3.5,12.7,4,13.4z"/>
		<path id="XMLID_3_" class="st1" d="M7.5,14.9c0.8-0.2,1.2-0.4,1.9-0.9c-0.4-0.8-0.6-1.1-1.1-1.9c-0.7,0.5-1.2,0.7-2,1
			C6.8,13.9,7,14.2,7.5,14.9z"/>
		<path id="XMLID_2_" class="st2" d="M5.3,15.2c1,0,1.4-0.1,2.2-0.3c-0.5-0.7-0.7-1-1.2-1.7c-0.9,0.3-1.4,0.4-2.3,0.3
			C4.5,14.2,4.8,14.5,5.3,15.2z"/>
	</g>
	<path id="XMLID_1_" class="st2" d="M14,0.5c-0.1-0.1-0.2-0.2-0.4-0.2c-0.1,0.1-0.2,0.2-0.2,0.4l6.8,19l0.5-0.2L14,0.5z"/>
</g>
</svg>
