<?xml version="1.0" encoding="utf-8"?>
<!-- Generator: Adobe Illustrator 22.0.0, SVG Export Plug-In . SVG Version: 6.00 Build 0)  -->
<svg version="1.1" id="图层_1" xmlns="http://www.w3.org/2000/svg" xmlns:xlink="http://www.w3.org/1999/xlink" x="0px" y="0px"
	 viewBox="0 0 175 175" style="enable-background:new 0 0 175 175;" xml:space="preserve">
<style type="text/css">
	.st0{fill:#333333;}
</style>
<path class="st0" d="M19.3,118.8h39c-1.1-7.9-1.8-16.3-2-25H12.8C13.5,102.6,15.8,111,19.3,118.8L19.3,118.8z M26.6,131.3
	c10.6,14.7,26.1,25.1,43.7,29.3c-4-7.5-7.4-17.5-9.8-29.3H26.6z M155.7,118.8c3.5-7.7,5.8-16.1,6.5-25h-43.6c-0.2,8.4-0.9,16.7-2,25
	H155.7z M148.4,131.3h-33.9c-2.4,11.8-5.8,21.8-9.8,29.3C122.3,156.3,137.9,146,148.4,131.3L148.4,131.3z M70.4,118.8h34.1
	c0.9-7.7,1.4-16.1,1.6-25H68.8C69,102.6,69.6,111,70.4,118.8z M72.3,131.3c3.4,18.9,9,31.3,15.2,31.3s11.8-12.3,15.2-31.3H72.3z
	 M12.8,81.3h43.6c0.2-8.8,0.9-17.1,2-25h-39C15.7,64.1,13.5,72.6,12.8,81.3z M162.2,81.3c-0.7-8.7-2.9-17.1-6.5-25h-39
	c1.1,7.9,1.8,16.3,2,25H162.2z M68.8,81.3h37.4c-0.2-8.4-0.7-16.7-1.6-25H70.5C69.5,64.6,69,72.9,68.8,81.3z M26.6,43.8h33.9
	C62.9,32,66.2,22,70.3,14.5C52.7,18.7,37.1,29,26.6,43.8L26.6,43.8z M148.4,43.8c-10.6-14.7-26.1-25.1-43.7-29.3
	c4,7.5,7.4,17.5,9.8,29.3H148.4L148.4,43.8z M72.3,43.8h30.5c-3.4-18.9-9-31.3-15.2-31.3S75.7,24.8,72.3,43.8z M87.5,175
	C39.2,175,0,135.8,0,87.5S39.2,0,87.5,0S175,39.2,175,87.5S135.8,175,87.5,175z"/>
</svg>
