<?xml version="1.0" encoding="utf-8"?>
<!-- Generator: Adobe Illustrator 22.0.0, SVG Export Plug-In . SVG Version: 6.00 Build 0)  -->
<svg version="1.1" id="图层_1" xmlns="http://www.w3.org/2000/svg" xmlns:xlink="http://www.w3.org/1999/xlink" x="0px" y="0px"
	 viewBox="0 0 100 30.2" style="enable-background:new 0 0 100 30.2;" xml:space="preserve">
<style type="text/css">
	.st0{fill:#E60000;}
</style>
<g id="XMLID_46_">
	<g id="XMLID_1_">
		<path id="XMLID_10_" class="st0" d="M0,30V11h10.9c1.2,0,1.6-0.2,1.7-0.4l0.1-0.1c0.4-0.3,0.7-0.7,0.9-1.4c0-0.2,0-0.3,0-0.3V8.5
			c0-0.5-0.2-1-0.7-1.5c-0.5-0.4-1-0.6-1.6-0.6H0V0h11c4,0,7,1.9,8.5,5.4c0.4,1.1,0.6,2.2,0.6,3.3c0,2.4-0.9,4.5-2.8,6.3
			c-1.2,1.1-2.6,1.8-4.3,2.1c-0.6,0.1-1.3,0.1-1.9,0.1l-4.7,0.1V30H0z"/>
		<polygon id="XMLID_9_" class="st0" points="35.9,30 20.7,15 35.8,0 46.1,0 31.3,15 46,30 		"/>
	</g>
	<g id="XMLID_6_">
		<path id="XMLID_26_" class="st0" d="M52.8,30h-4.5v-4.3h4.5V30z"/>
	</g>
</g>
<g>
	<path class="st0" d="M64.2,20.9l-1.7,0.6c-0.2-0.6-0.5-1.1-0.8-1.4c-0.3-0.3-0.8-0.4-1.3-0.4c-0.5,0-0.9,0.2-1.2,0.5
		s-0.4,0.6-0.4,1c0,0.4,0.2,0.8,0.5,1c0.3,0.3,0.9,0.6,1.9,0.9c0.8,0.3,1.4,0.6,1.8,0.9c0.4,0.3,0.8,0.6,1,1.1
		c0.3,0.5,0.4,1,0.4,1.6c0,1-0.3,1.8-1,2.5s-1.7,1-2.9,1c-2.2,0-3.5-1.1-4-3.3l1.7-0.5c0.3,1.4,1.1,2.2,2.4,2.2
		c0.6,0,1.1-0.2,1.4-0.5c0.3-0.3,0.5-0.7,0.5-1.2c0-0.3-0.1-0.7-0.3-1c-0.2-0.3-0.8-0.6-1.7-1c-0.9-0.4-1.6-0.7-2-0.9
		s-0.8-0.6-1.1-1.1c-0.3-0.5-0.4-1-0.4-1.6c0-0.9,0.3-1.7,1-2.4s1.5-1,2.6-1C62.4,18.1,63.6,19,64.2,20.9z"/>
	<path class="st0" d="M66.2,18.3h2.9c0.9,0,1.7,0.1,2.3,0.3c0.6,0.2,1.1,0.6,1.5,1.2c0.4,0.6,0.6,1.3,0.6,2.2c0,0.8-0.2,1.4-0.5,2
		c-0.3,0.6-0.8,1-1.3,1.2s-1.4,0.4-2.5,0.4h-1V30h-1.9V18.3z M68.1,19.8v4.1h1c0.9,0,1.5-0.2,1.8-0.5s0.5-0.8,0.5-1.6
		c0-0.5-0.1-1-0.3-1.3c-0.2-0.3-0.5-0.5-0.7-0.6c-0.3-0.1-0.7-0.1-1.2-0.1H68.1z"/>
	<path class="st0" d="M82.9,24.1c0,2-0.4,3.5-1.1,4.5c-0.7,1-1.8,1.5-3.1,1.5c-1.4,0-2.4-0.5-3.1-1.5s-1.1-2.5-1.1-4.5
		c0-2,0.4-3.5,1.1-4.5c0.7-1,1.8-1.5,3.1-1.5c1.4,0,2.4,0.5,3.1,1.5C82.5,20.6,82.9,22.1,82.9,24.1z M80.9,24.1
		c0-1.4-0.2-2.5-0.5-3.3c-0.3-0.8-0.9-1.2-1.7-1.2s-1.4,0.4-1.7,1.2s-0.5,1.9-0.5,3.3c0,1.4,0.2,2.5,0.5,3.3
		c0.3,0.8,0.9,1.2,1.7,1.2c0.8,0,1.3-0.4,1.7-1.2C80.7,26.7,80.9,25.6,80.9,24.1z"/>
	<path class="st0" d="M84.7,18.3h3.5c1.3,0,2.2,0.3,2.8,0.9s0.9,1.4,0.9,2.5c0,1.4-0.6,2.5-1.8,3.1l2.2,5.3h-2.1l-1.8-4.9h-1.8V30
		h-1.9V18.3z M86.7,19.8v3.8h1.5c0.7,0,1.2-0.2,1.5-0.5c0.3-0.4,0.5-0.8,0.5-1.4c0-1.2-0.6-1.8-1.9-1.8H86.7z"/>
	<path class="st0" d="M92.9,18.3h7.2v1.6h-2.6V30h-1.9V19.9h-2.6V18.3z"/>
</g>
</svg>
