<?xml version="1.0" encoding="utf-8"?>
<!-- Generator: Adobe Illustrator 22.0.0, SVG Export Plug-In . SVG Version: 6.00 Build 0)  -->
<svg version="1.1" id="图层_1" xmlns="http://www.w3.org/2000/svg" xmlns:xlink="http://www.w3.org/1999/xlink" x="0px" y="0px"
	 viewBox="0 0 44 36" style="enable-background:new 0 0 44 36;" xml:space="preserve">
<path d="M43,29.9v3.4c0,0.5-0.2,0.9-0.5,1.2c-0.3,0.3-0.8,0.5-1.2,0.5H2.8c-0.5,0-0.9-0.2-1.2-0.5C1.2,34.2,1,33.8,1,33.3v-3.4
	c0-0.5,0.2-0.9,0.5-1.2c0.3-0.3,0.8-0.5,1.2-0.5h38.5c0.5,0,0.9,0.2,1.2,0.5C42.8,29,43,29.4,43,29.9z M43,16.3v3.4
	c0,0.5-0.2,0.9-0.5,1.2c-0.3,0.3-0.8,0.5-1.2,0.5H2.8c-0.5,0-0.9-0.2-1.2-0.5C1.2,20.6,1,20.2,1,19.7v-3.4c0-0.5,0.2-0.9,0.5-1.2
	s0.8-0.5,1.2-0.5h38.5c0.5,0,0.9,0.2,1.2,0.5C42.8,15.4,43,15.8,43,16.3z M43,2.7v3.4c0,0.5-0.2,0.9-0.5,1.2
	c-0.3,0.3-0.8,0.5-1.2,0.5H2.8c-0.5,0-0.9-0.2-1.2-0.5S1,6.6,1,6.1V2.7c0-0.5,0.2-0.9,0.5-1.2S2.3,1,2.8,1h38.5
	c0.5,0,0.9,0.2,1.2,0.5C42.8,1.8,43,2.2,43,2.7z"/>
</svg>
