<?xml version="1.0" encoding="utf-8"?>
<!-- Generator: Adobe Illustrator 22.0.0, SVG Export Plug-In . SVG Version: 6.00 Build 0)  -->
<svg version="1.1" id="图层_1" xmlns="http://www.w3.org/2000/svg" xmlns:xlink="http://www.w3.org/1999/xlink" x="0px" y="0px"
	 viewBox="0 0 200 200" style="enable-background:new 0 0 200 200;" xml:space="preserve">
<style type="text/css">
	.st0{fill:#333333;}
</style>
<path class="st0" d="M84.6,199c0.3-3.1,0.5-5.7,0.9-8.4c0.6-4.6,1.4-9.2,2-13.7c0.3-2.3,0.5-4.6,0.8-6.9l1.4-10.6
	c0.3-2,0.5-4.1,0.8-6.2c0.3-3.1,0.5-6.2,0.9-9.3c0.2-1.6,0.5-3.3,0.7-4.9c0.3-3.4-1-6.5-2-9.6c-0.3-1.1-0.7-2.2-0.9-3.4
	c0-0.4,0.7-1.2,1-1.2c6.6-0.1,13.2,0,19.8,0c0.9,0,1.3,0.2,0.9,1.3c-0.7,2.2-1.3,4.5-1.9,6.7c-0.2,0.9-0.6,1.8-0.7,2.7
	c-0.5,3.1-0.1,6.2,0.6,9.4c0.5,2.2,0.6,4.5,0.8,6.7c0.3,3.3,0.5,6.6,0.9,9.8c0.6,4.8,1.4,9.5,2,14.3c0.3,2.1,0.6,4.2,0.8,6.4
	c0.3,3.2,0.6,6.4,0.9,9.6c0.2,2,0.4,3.9,0.8,5.8c0,0.4,0.5,0.7,1.2,1.4c0.9-3.5,1.7-6.6,2.5-9.6c0.8-3.1,1.8-6.2,2.7-9.2
	c0.6-2.1,1.1-4.3,1.7-6.5c0.7-2.3,1.4-4.7,2-7c0.6-2.1,1.1-4.3,1.7-6.5c0.6-2.3,1.3-4.6,2-6.9c0.6-2.1,1.1-4.3,1.7-6.4
	c0.7-2.4,1.4-4.8,2-7.3c0.6-2.2,1.1-4.4,1.7-6.6c0.6-2.3,1.3-4.6,2-6.9c0.6-2.1,1.1-4.2,1.7-6.3c0.2-1,0.3-2.2,0.9-2.8
	c0.7-0.6,2.2-1,3.1-0.7c4,1.4,7.9,3.2,11.8,4.7c4.1,1.6,8.2,3.1,12.3,4.6c3.2,1.2,6.5,2.5,9.7,3.8c4.2,1.7,8.1,3.6,11.8,6.3
	c3.3,2.4,5.8,5.3,7.3,9c0.7,1.6,0.6,3.5,0.8,5.3c0.3,3.3,0.5,6.5,0.8,9.8c0.4,3.8,0.9,7.7,1.4,11.5l0,0.5c0.3,3.9,0.6,7.8,0.9,11.6
	c0.2,2.7,0.4,5.4,0.8,8c0.6,4.3-4.1,8.7-8.7,8.7c-25.1-0.2-50.3-0.2-75.4-0.2c-35.3,0-70.6,0-105.9,0.1c-3.1,0-5.8-0.7-7.6-3.2
	c-2.1-3-2.4-6.5-1.5-10c0.1-0.3,0.3-0.7,0.3-1c0.3-3.8,0.5-7.6,0.9-11.5c0.3-3.2,0.9-6.5,1.3-9.7l0.1-0.5c0.3-3.8,0.2-7.7,0.9-11.4
	c0.7-3.6,0.1-7.5,2.6-10.9c2.5-3.3,5.4-6.1,8.9-8.3c5.3-3.3,11.3-5.2,17.1-7.4c4.6-1.7,9.1-3.7,13.7-5.5c3.8-1.5,7.7-3,11.6-4.4
	c1.8-0.7,3.4,0.6,3.8,2.4c0.5,2.4,1.4,4.7,2,7.1c0.6,2.1,1.1,4.3,1.7,6.5c0.6,2.4,1.4,4.7,2,7.1c0.6,2.1,1.1,4.2,1.7,6.3
	c0.9,3.3,1.9,6.6,2.8,10c0.6,2.1,1.1,4.2,1.6,6.3c0.7,2.4,1.4,4.8,2.1,7.3c0.6,2.2,1.1,4.3,1.7,6.5c0.6,2.4,1.4,4.7,2,7.1
	c0.6,2.2,1.1,4.3,1.7,6.5c0.8,3,1.5,6,2.4,9C83.5,198.3,84,198.5,84.6,199L84.6,199z M53.3,50.5c0.7-3.8,1.5-8.5,2.5-13.2
	c1.1-5.6,3.6-10.6,6.7-15.4c4.4-7,10.7-12.6,18-16.4c3.4-1.7,6.9-3.2,10.7-3.7c2.8-0.4,5.7-1.1,8.5-1.2c2.9,0,5.9,0.5,8.8,1
	c2.7,0.5,5.5,1.3,8,2.4c7.1,2.9,13.3,7.5,18.1,13.4c3.6,4.4,6.4,9.2,8.5,14.3c1.2,3,1.8,6.2,2.4,9.3c0.6,2.8,1.2,5.7,1.2,8.6
	c-0.1,4-0.5,8-1.1,11.9c-0.3,2.3-1,4.6-1.5,6.9c-1,4.4-2.9,8.4-5,12.3c-3.5,6.7-8.3,12.5-14.3,17.3c-3.9,3.2-8.3,5.6-13,7.1
	c-4.3,1.4-8.6,2.3-13,2c-7.1-0.4-14-2.8-19.9-6.8c-5.3-3.6-9.9-7.9-13.4-13.2c-2.4-3.7-4.6-7.5-6.6-11.5c-1.6-3.4-2.6-7.1-3.7-10.7
	c-0.5-1.8-0.6-3.7-0.9-5.6C54,56.7,53.7,54.1,53.3,50.5z"/>
</svg>
