<?xml version="1.0" encoding="utf-8"?>
<!-- Generator: Adobe Illustrator 19.0.0, SVG Export Plug-In . SVG Version: 6.00 Build 0)  -->
<svg version="1.1" id="图层_1" xmlns="http://www.w3.org/2000/svg" xmlns:xlink="http://www.w3.org/1999/xlink" x="0px" y="0px"
	 viewBox="0 0 30 30" style="enable-background:new 0 0 30 30;" xml:space="preserve">
<style type="text/css">
	.st0{fill:#3653F5;}
</style>
<g id="XMLID_1_">
	<path class="st0" d="M8.2,22.5h7.6V21H8.2V22.5z M8.2,17.3h13.7v-1.5H8.2V17.3z M17.3,0h-4.5v1.5h4.6L17.3,0L17.3,0z M8.2,12h13.7
		v-1.5H8.2V12z M26.4,0h-4.6c0,0-2.3-0.1-2.3,1.5c0,1-0.6,1.4-1.2,1.5h-6.4c-0.7-0.1-1.5-0.4-1.5-1.5C10.4-0.3,8.2,0,8.2,0H3.6
		C2.8,0,2.1,0.7,2.1,1.5v27c0,0.8,0.7,1.5,1.5,1.5h17.4l6.8-6.7V1.6C27.9,0.7,27.2,0,26.4,0L26.4,0z M20.3,28.5v-5.2
		c0-0.4,0.3-0.7,0.8-0.7h5.3L20.3,28.5z M26.4,21h-6.1c-0.8,0-1.5,0.7-1.5,1.5v6H4.4c-0.4,0-0.8-0.3-0.8-0.7V2.3
		c0-0.4,0.3-0.7,0.8-0.7H8C8.5,1.7,8.9,2.1,8.9,3c0,1.6,2.3,1.5,2.3,1.5h7.6c0,0,2.3,0,2.3-1.7c0-0.8,0.6-1.2,1.1-1.3h3.4
		c0.4,0,0.8,0.3,0.8,0.7L26.4,21z M26.4,21"/>
</g>
</svg>
