<?xml version="1.0" encoding="utf-8"?>
<!-- Generator: Adobe Illustrator 19.0.0, SVG Export Plug-In . SVG Version: 6.00 Build 0)  -->
<svg version="1.1" id="图层_1" xmlns="http://www.w3.org/2000/svg" xmlns:xlink="http://www.w3.org/1999/xlink" x="0px" y="0px"
	 viewBox="0 0 30 30" style="enable-background:new 0 0 30 30;" xml:space="preserve">
<style type="text/css">
	.st0{fill:#3653F5;}
</style>
<g id="XMLID_10_">
	<path id="XMLID_35_" class="st0" d="M2.9,20.7c-0.4,0-0.7-0.3-0.8-0.7C2,19.5,2.4,19,2.9,19c9.3-1.6,17.5-7.8,21.8-16.7
		c0.1-0.3,0.3-0.6,0.4-0.8c0.2-0.5,0.7-0.7,1.1-0.5c0.5,0.2,0.7,0.7,0.5,1.1c-0.1,0.3-0.3,0.6-0.4,0.8c-4.6,9.3-13.3,16-23.1,17.8
		C3,20.7,2.9,20.7,2.9,20.7L2.9,20.7z M2.9,20.7"/>
	<path id="XMLID_32_" class="st0" d="M27.1,5.8c-0.4,0-0.7-0.3-0.8-0.7l-0.8-3.9c-0.1-0.5,0.2-0.9,0.7-1c0.5-0.1,0.9,0.2,1,0.7
		l0.8,4c0.1,0.5-0.2,0.9-0.7,1L27.1,5.8L27.1,5.8z M27.1,5.8"/>
	<path id="XMLID_25_" class="st0" d="M22.6,3c-0.4,0-0.7-0.3-0.8-0.7c-0.2-0.5,0.1-0.9,0.6-1.1L26,0.1c0.5-0.2,0.9,0.1,1.1,0.6
		c0.2,0.5-0.1,0.9-0.6,1.1l-3.7,1.1C22.8,2.9,22.7,3,22.6,3L22.6,3z M26,30c-0.2,0-0.4-0.1-0.6-0.2c-0.2-0.2-0.2-0.4-0.2-0.6V10.3
		c0-0.5,0.4-0.8,0.8-0.8c0.5,0,0.8,0.4,0.8,0.8v18.9c0,0.2-0.1,0.4-0.2,0.6C26.5,29.9,26.2,30,26,30L26,30z M18.6,30
		c-0.2,0-0.4-0.1-0.6-0.2c-0.2-0.2-0.2-0.4-0.2-0.6V17.6c0-0.5,0.4-0.8,0.8-0.8c0.5,0,0.8,0.4,0.8,0.8v11.5
		C19.6,29.6,19.2,30,18.6,30L18.6,30z M11.4,30c-0.2,0-0.4-0.1-0.6-0.2c-0.2-0.2-0.2-0.4-0.2-0.6V23c0-0.5,0.4-0.8,0.8-0.8
		c0.5,0,0.8,0.4,0.8,0.8v6.2c0,0.2-0.1,0.4-0.2,0.6C11.8,29.9,11.6,30,11.4,30L11.4,30z M4,30c-0.2,0-0.4-0.1-0.6-0.2
		c-0.2-0.2-0.2-0.4-0.2-0.6v-4c0-0.5,0.4-0.8,0.8-0.8c0.5,0,0.8,0.4,0.8,0.8v4c0,0.2-0.1,0.4-0.2,0.6C4.4,29.9,4.2,30,4,30L4,30z
		 M4,30"/>
</g>
</svg>
