<?xml version="1.0" encoding="utf-8"?>
<!-- Generator: Adobe Illustrator 19.0.0, SVG Export Plug-In . SVG Version: 6.00 Build 0)  -->
<svg version="1.1" id="图层_1" xmlns="http://www.w3.org/2000/svg" xmlns:xlink="http://www.w3.org/1999/xlink" x="0px" y="0px"
	 viewBox="0 0 16 16" style="enable-background:new 0 0 16 16;" xml:space="preserve">
<style type="text/css">
	.st0{fill:#FFA800;}
</style>
<path class="st0" d="M12.6,15.6c-0.1,0-0.2,0-0.3-0.1L8,13.3l-4.3,2.2c-0.1,0-0.2,0.1-0.3,0.1c-0.2,0-0.4-0.1-0.5-0.2
	c-0.1-0.1-0.2-0.3-0.1-0.5l0.8-4.7L0.2,6.8C0,6.7-0.1,6.4,0,6.2c0.1-0.3,0.3-0.4,0.5-0.4l4.8-0.7l2.1-4.3C7.5,0.6,7.7,0.4,8,0.4
	c0.3,0,0.5,0.1,0.6,0.4l2.1,4.3l4.8,0.7c0.3,0,0.5,0.2,0.5,0.4c0.1,0.3,0,0.5-0.2,0.7l-3.5,3.3l0.8,4.7c0,0.2,0,0.4-0.1,0.5
	C13,15.5,12.8,15.6,12.6,15.6L12.6,15.6z M12.6,15.6"/>
</svg>
