<?xml version="1.0" encoding="utf-8"?>
<!-- Generator: Adobe Illustrator 19.0.0, SVG Export Plug-In . SVG Version: 6.00 Build 0)  -->
<svg version="1.1" id="图层_1" xmlns="http://www.w3.org/2000/svg" xmlns:xlink="http://www.w3.org/1999/xlink" x="0px" y="0px"
	 viewBox="0 0 34 40" style="enable-background:new 0 0 34 40;" xml:space="preserve">
<style type="text/css">
	.st0{fill:#FFFFFF;}
	.st1{fill:#3653F5;}
</style>
<g id="XMLID_1_">
	<path id="XMLID_16_" class="st0" d="M18,18.1c0,0,0.6,0.5,0.8,0.9c0.3,0.6-0.4,1.3-0.9,1.3s2.5,0.2,2.5,0.2l0.5-1.2
		c0,0,0-1.6,0.1-1.7s-0.3-0.9-0.3-1s-2.5,0.2-2.5,0.2L18,18.1z"/>
	<path id="XMLID_15_" class="st0" d="M20.4,18.2H10.3c-0.4,0-0.8-0.4-0.8-0.8V6.7c0-0.4,0.4-0.8,0.8-0.8h10.1c0.4,0,0.8,0.4,0.8,0.8
		v10.7C21.2,17.8,20.9,18.2,20.4,18.2z"/>
	<path id="XMLID_17_" class="st0" d="M32.6,21.4h-10c-0.4,0-0.8,0.1-0.8-0.3V10.2c0-0.1,0.1-0.2,0.2-0.2h10.6c0.4,0,0.2-0.2,0.2,0.3
		L29,15.5l3.9,5.7C32.9,21.6,33,21.4,32.6,21.4z"/>
	<path id="XMLID_10_" class="st1" d="M21.4,11.8h-6V6h4c1.1,0,1.9,0.9,1.9,1.9V11.8z"/>
	<rect id="XMLID_9_" x="9.5" y="11.8" class="st1" width="6" height="5.8"/>
	<path id="XMLID_8_" class="st1" d="M21.6,15.7h4.8v6.2h-4c-0.4,0-0.8-0.4-0.8-0.8V15.7z"/>
	<polygon id="XMLID_7_" class="st1" points="26.4,9.9 33.5,9.9 28.9,15.7 26.4,15.7 	"/>
	<g id="XMLID_5_">
		<path id="XMLID_3_" class="st1" d="M19.6,21.1h-1.3c-0.2,0-0.4-0.2-0.4-0.4s0.2-0.4,0.4-0.4h1.3c0.9,0,1.4-0.4,1.4-1.2V8
			c0-0.9-0.6-1.6-1.4-1.6H9.9v11.1h7.6c0.6,0,1.8,0,2.1,1l-0.8,0.2c-0.1-0.3-0.4-0.4-1.2-0.4h-8C9.2,18.4,9,18.2,9,18V6
			c0-0.2,0.2-0.4,0.4-0.4h10.1c1.3,0,2.3,1,2.3,2.4v11C21.9,20.3,21,21.1,19.6,21.1z"/>
	</g>
	<g id="XMLID_4_">
		<path id="XMLID_2_" class="st1" d="M33.1,21.9H22.7c-0.2,0-0.4-0.2-0.4-0.4s0.2-0.4,0.4-0.4h9.5l-3.7-5.1c-0.1-0.2-0.1-0.4,0-0.5
			l3.7-5.1H21.6c-0.2,0-0.4-0.2-0.4-0.4s0.2-0.4,0.4-0.4h11.4c0.2,0,0.3,0.1,0.4,0.2c0.1,0.1,0.1,0.3,0,0.5l-4,5.6l4,5.6
			c0.1,0.1,0.1,0.3,0,0.5C33.4,21.8,33.2,21.9,33.1,21.9z"/>
	</g>
	<circle id="XMLID_11_" class="st1" cx="8" cy="3" r="3"/>
	<rect id="XMLID_12_" x="7.5" y="4" class="st1" width="2" height="35"/>
	<path id="XMLID_13_" class="st1" d="M15.5,40h-14c-0.6,0-1-0.4-1-1l0,0c0-0.6,0.4-1,1-1h14c0.6,0,1,0.4,1,1l0,0
		C16.5,39.6,16,40,15.5,40z"/>
</g>
</svg>
