<?xml version="1.0" encoding="utf-8"?>
<!-- Generator: Adobe Illustrator 19.0.0, SVG Export Plug-In . SVG Version: 6.00 Build 0)  -->
<svg version="1.1" id="图层_1" xmlns="http://www.w3.org/2000/svg" xmlns:xlink="http://www.w3.org/1999/xlink" x="0px" y="0px"
	 viewBox="0 0 28 28" style="enable-background:new 0 0 28 28;" xml:space="preserve">
<style type="text/css">
	.st0{fill:none;}
	.st1{fill:#CCCCCC;}
</style>
<line id="XMLID_13_" class="st0" x1="14" y1="14" x2="14" y2="14"/>
<path id="XMLID_20_" class="st1" d="M21.7,10C21.9,9.4,22,8.7,22,8c0-4.4-3.6-8-8-8S6,3.6,6,8c0,0.7,0.1,1.4,0.3,2H0v18h28V10H21.7z
	 M14,2c3.3,0,6,2.7,6,6c0,0.7-0.1,1.4-0.3,2H8.3C8.1,9.4,8,8.7,8,8C8,4.7,10.7,2,14,2z M26,26H2V12h24V26z"/>
</svg>
