<?xml version="1.0" encoding="utf-8"?>
<!-- Generator: Adobe Illustrator 19.0.0, SVG Export Plug-In . SVG Version: 6.00 Build 0)  -->
<svg version="1.1" id="图层_1" xmlns="http://www.w3.org/2000/svg" xmlns:xlink="http://www.w3.org/1999/xlink" x="0px" y="0px"
	 viewBox="0 0 28 28" style="enable-background:new 0 0 28 28;" xml:space="preserve">
<style type="text/css">
	.st0{fill:#CCCCCC;}
</style>
<path id="XMLID_10_" class="st0" d="M18.4,14.7C20.5,13.3,22,10.8,22,8c0-4.4-3.6-8-8-8S6,3.6,6,8c0,2.8,1.5,5.3,3.6,6.7
	C4,16.5,0,21.8,0,28h2c0-6.6,5.4-12,12-12s12,5.4,12,12h2C28,21.8,24,16.5,18.4,14.7z M8,8c0-3.3,2.7-6,6-6s6,2.7,6,6s-2.7,6-6,6
	S8,11.3,8,8z"/>
</svg>
