<?xml version="1.0" encoding="utf-8"?>
<!-- Generator: Adobe Illustrator 19.0.0, SVG Export Plug-In . SVG Version: 6.00 Build 0)  -->
<svg version="1.1" id="图层_1" xmlns="http://www.w3.org/2000/svg" xmlns:xlink="http://www.w3.org/1999/xlink" x="0px" y="0px"
	 viewBox="0 0 60 37" style="enable-background:new 0 0 60 37;" xml:space="preserve">
<style type="text/css">
	.st0{fill:#FFC933;}
</style>
<g id="XMLID_2_">
	<path id="XMLID_3_" class="st0" d="M7.4,0.9l6.2,20.3c0.2,0.6,0.3,1.2,0.5,1.9c0.2,0.7,0.3,1.3,0.5,1.8c0.2,0.7,0.3,1.3,0.5,1.9
		h0.1l0.5-2c0.2-0.6,0.3-1.2,0.5-1.8c0.2-0.7,0.4-1.3,0.5-1.8l6.1-20.3H30l-11.8,35h-6.5L0,0.9H7.4z"/>
	<path id="XMLID_5_" class="st0" d="M35.4,33.7c-2.6-2-4-4.9-4.1-8.6h6.9c0.3,2.1,1,3.6,2.3,4.5c1.2,0.9,3.1,1.3,5.6,1.3
		c0.9,0,1.8-0.1,2.6-0.2c0.8-0.2,1.5-0.4,2.2-0.8c0.6-0.4,1.1-0.8,1.5-1.4c0.4-0.6,0.6-1.3,0.6-2.1c0-0.8-0.2-1.6-0.6-2.1
		c-0.4-0.6-1-1-1.7-1.4c-0.8-0.4-1.7-0.7-2.7-1c-1.1-0.3-2.3-0.6-3.6-0.9c-1.6-0.4-3.1-0.8-4.5-1.2c-1.5-0.4-2.7-1-3.8-1.8
		c-1.1-0.8-2-1.7-2.6-2.9c-0.7-1.2-1-2.7-1-4.5c0-1.7,0.3-3.2,1-4.6c0.7-1.3,1.6-2.4,2.8-3.3c1.2-0.9,2.6-1.5,4.2-2
		c1.6-0.4,3.4-0.7,5.4-0.7c3.9,0,7.1,0.9,9.5,2.8c2.4,1.9,3.7,4.6,4,8.1h-6.8c-0.2-1.8-0.9-3.1-2.2-4c-1.2-0.9-2.8-1.3-4.6-1.3
		c-1.9,0-3.5,0.4-4.6,1.1c-1.1,0.8-1.7,1.7-1.7,3c0,0.7,0.2,1.3,0.5,1.8c0.3,0.5,0.8,0.9,1.4,1.2c0.6,0.4,1.4,0.7,2.4,0.9
		s2.1,0.5,3.4,0.8c1.8,0.4,3.5,0.8,5.1,1.3c1.6,0.5,3,1.1,4.2,1.9c1.2,0.8,2.1,1.8,2.8,3c0.7,1.2,1,2.8,1,4.6c0,1.8-0.3,3.3-1,4.7
		c-0.7,1.4-1.6,2.5-2.8,3.5c-1.2,0.9-2.6,1.6-4.3,2.1c-1.7,0.5-3.5,0.7-5.4,0.7C41.6,36.7,38,35.7,35.4,33.7z"/>
</g>
</svg>
